<?xml version="1.0" encoding="UTF-8"?>
<!DOCTYPE svg PUBLIC "-//W3C//DTD SVG 1.1//EN" "http://www.w3.org/Graphics/SVG/1.1/DTD/svg11.dtd">
<svg xmlns="http://www.w3.org/2000/svg" version="1.1" width="450px" height="554px" style="shape-rendering:geometricPrecision; text-rendering:geometricPrecision; image-rendering:optimizeQuality; fill-rule:evenodd; clip-rule:evenodd" xmlns:xlink="http://www.w3.org/1999/xlink">
<g><path style="opacity:0.004" fill="#000000" d="M 404.5,-0.5 C 404.833,-0.5 405.167,-0.5 405.5,-0.5C 405.315,0.170143 404.981,0.170143 404.5,-0.5 Z"/></g>
<g><path style="opacity:0.004" fill="#fefffe" d="M 212.5,7.5 C 213.833,8.16667 213.833,8.16667 212.5,7.5 Z"/></g>
<g><path style="opacity:0.004" fill="#fefffe" d="M 233.5,12.5 C 234.833,13.1667 234.833,13.1667 233.5,12.5 Z"/></g>
<g><path style="opacity:0.004" fill="#fefffe" d="M 17.5,26.5 C 18.8333,27.1667 18.8333,27.1667 17.5,26.5 Z"/></g>
<g><path style="opacity:0.004" fill="#fefffe" d="M 371.5,50.5 C 372.833,51.1667 372.833,51.1667 371.5,50.5 Z"/></g>
<g><path style="opacity:0.004" fill="#fefffe" d="M 293.5,55.5 C 294.833,56.1667 294.833,56.1667 293.5,55.5 Z"/></g>
<g><path style="opacity:0.004" fill="#fefffe" d="M 14.5,57.5 C 15.8333,58.1667 15.8333,58.1667 14.5,57.5 Z"/></g>
<g><path style="opacity:0.004" fill="#fefffe" d="M 410.5,59.5 C 411.833,60.1667 411.833,60.1667 410.5,59.5 Z"/></g>
<g><path style="opacity:0.004" fill="#fefffe" d="M 50.5,64.5 C 51.8333,65.1667 51.8333,65.1667 50.5,64.5 Z"/></g>
<g><path style="opacity:0.569" fill="#cf5656" d="M 212.5,66.5 C 213.165,69.6491 213.498,72.9825 213.5,76.5C 213.012,86.8899 212.012,97.2232 210.5,107.5C 209.839,105.866 209.506,104.033 209.5,102C 210.571,90.1552 211.571,78.3219 212.5,66.5 Z"/></g>
<g><path style="opacity:0.004" fill="#fefffe" d="M 314.5,84.5 C 315.833,85.1667 315.833,85.1667 314.5,84.5 Z"/></g>
<g><path style="opacity:0.467" fill="#c68184" d="M 270.5,101.5 C 273.726,102.877 274.059,104.543 271.5,106.5C 271.371,104.784 271.038,103.117 270.5,101.5 Z"/></g>
<g><path style="opacity:0.004" fill="#fefffe" d="M 344.5,107.5 C 345.833,108.167 345.833,108.167 344.5,107.5 Z"/></g>
<g><path style="opacity:0.004" fill="#fefffe" d="M 368.5,108.5 C 369.833,109.167 369.833,109.167 368.5,108.5 Z"/></g>
<g><path style="opacity:0.004" fill="#fefffe" d="M 284.5,109.5 C 285.833,110.167 285.833,110.167 284.5,109.5 Z"/></g>
<g><path style="opacity:0.004" fill="#fefffe" d="M 386.5,110.5 C 387.833,111.167 387.833,111.167 386.5,110.5 Z"/></g>
<g><path style="opacity:0.004" fill="#fefffe" d="M 329.5,115.5 C 330.833,116.167 330.833,116.167 329.5,115.5 Z"/></g>
<g><path style="opacity:0.004" fill="#fefffe" d="M 176.5,119.5 C 177.833,120.167 177.833,120.167 176.5,119.5 Z"/></g>
<g><path style="opacity:0.004" fill="#fefffe" d="M 371.5,120.5 C 372.833,121.167 372.833,121.167 371.5,120.5 Z"/></g>
<g><path style="opacity:0.004" fill="#fefffe" d="M 179.5,123.5 C 180.833,124.167 180.833,124.167 179.5,123.5 Z"/></g>
<g><path style="opacity:0.004" fill="#fefffe" d="M 47.5,124.5 C 48.8333,125.167 48.8333,125.167 47.5,124.5 Z"/></g>
<g><path style="opacity:0.004" fill="#fefffe" d="M 155.5,124.5 C 156.833,125.167 156.833,125.167 155.5,124.5 Z"/></g>
<g><path style="opacity:0.004" fill="#fefffe" d="M 317.5,127.5 C 318.833,128.167 318.833,128.167 317.5,127.5 Z"/></g>
<g><path style="opacity:0.004" fill="#fefffe" d="M 350.5,127.5 C 351.833,128.167 351.833,128.167 350.5,127.5 Z"/></g>
<g><path style="opacity:1" fill="#d74140" d="M 193.5,106.5 C 194.156,107.622 194.489,108.955 194.5,110.5C 193.519,114.702 192.019,118.702 190,122.5C 185.275,126.506 181.608,130.84 179,135.5C 178.586,135.043 178.086,134.709 177.5,134.5C 173.033,137.22 171.033,141.22 171.5,146.5C 176.742,146.977 181.742,146.144 186.5,144C 185.991,141.43 184.991,139.097 183.5,137C 185.025,135.991 186.692,135.491 188.5,135.5C 189.017,140.924 191.684,142.424 196.5,140C 196.167,139.667 195.833,139.333 195.5,139C 202.2,138.447 208.867,138.78 215.5,140C 216.381,140.708 217.047,141.542 217.5,142.5C 216.883,142.611 216.383,142.944 216,143.5C 212.578,141.746 208.911,140.746 205,140.5C 197.115,142.795 189.282,145.295 181.5,148C 171.209,150.665 167.709,147.165 171,137.5C 177.333,131.167 183.667,124.833 190,118.5C 191.881,114.693 193.047,110.693 193.5,106.5 Z"/></g>
<g><path style="opacity:1" fill="#de282b" d="M 212.5,66.5 C 211.571,78.3219 210.571,90.1552 209.5,102C 209.506,104.033 209.839,105.866 210.5,107.5C 214.325,106.926 217.991,105.759 221.5,104C 228.952,99.8625 236.119,95.3625 243,90.5C 243.591,85.2265 245.091,80.2265 247.5,75.5C 249.92,72.6421 252.42,72.3088 255,74.5C 256.202,77.7735 257.202,81.1069 258,84.5C 259.441,85.87 261.108,86.87 263,87.5C 264,90.5 265,93.5 266,96.5C 267.707,98.0375 269.207,99.7041 270.5,101.5C 271.038,103.117 271.371,104.784 271.5,106.5C 269.799,107.734 267.799,108.401 265.5,108.5C 261.521,107.704 257.521,107.037 253.5,106.5C 251.366,106.515 249.366,107.015 247.5,108C 239.113,113.472 230.947,119.305 223,125.5C 222.383,126.449 222.549,127.282 223.5,128C 226.191,128.156 228.524,128.989 230.5,130.5C 231.406,131.965 232.739,132.965 234.5,133.5C 235.386,134.325 235.719,135.325 235.5,136.5C 234.127,136.343 232.793,136.51 231.5,137C 238.327,139.119 237.993,140.452 230.5,141C 232.9,141.186 235.234,141.686 237.5,142.5C 235.997,143.557 234.33,144.224 232.5,144.5C 228.009,142.783 223.343,142.117 218.5,142.5C 218.167,142.5 217.833,142.5 217.5,142.5C 217.047,141.542 216.381,140.708 215.5,140C 208.867,138.78 202.2,138.447 195.5,139C 195.833,139.333 196.167,139.667 196.5,140C 191.684,142.424 189.017,140.924 188.5,135.5C 186.692,135.491 185.025,135.991 183.5,137C 184.991,139.097 185.991,141.43 186.5,144C 181.742,146.144 176.742,146.977 171.5,146.5C 171.033,141.22 173.033,137.22 177.5,134.5C 178.086,134.709 178.586,135.043 179,135.5C 181.608,130.84 185.275,126.506 190,122.5C 192.019,118.702 193.519,114.702 194.5,110.5C 194.489,108.955 194.156,107.622 193.5,106.5C 196.485,94.3749 199.985,82.3749 204,70.5C 205.305,67.3623 207.471,65.029 210.5,63.5C 211.919,64.0047 212.585,65.0047 212.5,66.5 Z"/></g>
<g><path style="opacity:1" fill="#da3b39" d="M 230.5,130.5 C 238.262,133.022 245.928,135.855 253.5,139C 256.266,140.467 258.766,142.3 261,144.5C 261.45,147.064 260.284,148.564 257.5,149C 244.088,148.765 231.088,146.598 218.5,142.5C 223.343,142.117 228.009,142.783 232.5,144.5C 234.33,144.224 235.997,143.557 237.5,142.5C 235.234,141.686 232.9,141.186 230.5,141C 237.993,140.452 238.327,139.119 231.5,137C 232.793,136.51 234.127,136.343 235.5,136.5C 235.719,135.325 235.386,134.325 234.5,133.5C 232.739,132.965 231.406,131.965 230.5,130.5 Z"/></g>
<g><path style="opacity:0.988" fill="#d15e5d" d="M 159.5,151.5 C 158.549,150.081 158.216,148.415 158.5,146.5C 156.297,146.604 154.297,147.27 152.5,148.5C 152.511,146.983 153.177,145.816 154.5,145C 156.527,143.121 158.86,141.954 161.5,141.5C 160.242,144.694 159.576,148.027 159.5,151.5 Z"/></g>
<g><path style="opacity:0.004" fill="#fefffe" d="M 185.5,150.5 C 186.833,151.167 186.833,151.167 185.5,150.5 Z"/></g>
<g><path style="opacity:0.004" fill="#fefffe" d="M 353.5,152.5 C 354.833,153.167 354.833,153.167 353.5,152.5 Z"/></g>
<g><path style="opacity:1" fill="#dc3736" d="M 159.5,151.5 C 162.098,154.182 165.431,155.682 169.5,156C 162.333,161.833 155.167,167.667 148,173.5C 145.008,177.827 142.008,182.161 139,186.5C 136.673,191.546 134.506,196.546 132.5,201.5C 132.716,197.941 132.382,194.441 131.5,191C 132.721,189.018 134.388,187.518 136.5,186.5C 134.914,184.33 133.58,181.996 132.5,179.5C 128.952,185.262 125.952,191.262 123.5,197.5C 127.795,177.9 137.462,161.567 152.5,148.5C 154.297,147.27 156.297,146.604 158.5,146.5C 158.216,148.415 158.549,150.081 159.5,151.5 Z"/></g>
<g><path style="opacity:0.004" fill="#fefffe" d="M 26.5,163.5 C 27.8333,164.167 27.8333,164.167 26.5,163.5 Z"/></g>
<g><path style="opacity:0.004" fill="#fefffe" d="M 74.5,163.5 C 75.8333,164.167 75.8333,164.167 74.5,163.5 Z"/></g>
<g><path style="opacity:0.004" fill="#fefffe" d="M 269.5,168.5 C 270.833,169.167 270.833,169.167 269.5,168.5 Z"/></g>
<g><path style="opacity:0.004" fill="#fefffe" d="M 68.5,170.5 C 69.8333,171.167 69.8333,171.167 68.5,170.5 Z"/></g>
<g><path style="opacity:0.004" fill="#fefffe" d="M 182.5,171.5 C 183.833,172.167 183.833,172.167 182.5,171.5 Z"/></g>
<g><path style="opacity:0.004" fill="#fefffe" d="M 23.5,173.5 C 24.8333,174.167 24.8333,174.167 23.5,173.5 Z"/></g>
<g><path style="opacity:0.004" fill="#fefffe" d="M 173.5,175.5 C 174.833,176.167 174.833,176.167 173.5,175.5 Z"/></g>
<g><path style="opacity:0.997" fill="#d04b4a" d="M 271.5,192.5 C 268.103,192.259 264.769,191.593 261.5,190.5C 259.9,190.551 258.4,190.884 257,191.5C 255.881,190.448 255.381,189.281 255.5,188C 237.978,184.419 220.311,183.585 202.5,185.5C 205.903,184.075 209.57,183.242 213.5,183C 233.882,180.675 253.216,183.842 271.5,192.5 Z"/></g>
<g><path style="opacity:1" fill="#df252a" d="M 132.5,201.5 C 130.493,209.715 129.66,218.048 130,226.5C 147.991,208.525 169.491,195.025 194.5,186C 197.146,185.503 199.813,185.336 202.5,185.5C 220.311,183.585 237.978,184.419 255.5,188C 255.381,189.281 255.881,190.448 257,191.5C 258.4,190.884 259.9,190.551 261.5,190.5C 264.769,191.593 268.103,192.259 271.5,192.5C 274.248,195.048 277.581,196.882 281.5,198C 282.337,199.011 282.67,200.178 282.5,201.5C 286.015,202.043 289.348,203.043 292.5,204.5C 317.577,221.267 334.244,244.267 342.5,273.5C 343.067,283.003 343.733,292.503 344.5,302C 344.102,309.174 343.602,316.34 343,323.5C 341.268,326.79 340.768,330.124 341.5,333.5C 338.616,336.964 336.616,340.964 335.5,345.5C 334.294,349.072 333.627,352.738 333.5,356.5C 331.83,361.339 329.497,365.839 326.5,370C 312.229,377.184 297.062,380.017 281,378.5C 274.423,378.481 267.923,378.148 261.5,377.5C 255.072,375.342 248.572,373.342 242,371.5C 241.833,371.167 241.667,370.833 241.5,370.5C 245.375,369.619 249.042,368.286 252.5,366.5C 249.23,365.808 245.897,365.808 242.5,366.5C 242.643,364.738 242.309,363.071 241.5,361.5C 243.901,358.587 245.234,358.921 245.5,362.5C 246.552,362.649 247.552,362.483 248.5,362C 251.643,353.963 257.31,350.463 265.5,351.5C 265.596,347.689 266.262,347.689 267.5,351.5C 268.72,350.289 269.887,350.289 271,351.5C 271.188,349.939 270.355,349.272 268.5,349.5C 269.263,345.24 271.429,341.907 275,339.5C 275.681,335.779 276.514,332.113 277.5,328.5C 284.333,313.474 285,298.14 279.5,282.5C 278.207,277.067 276.707,271.734 275,266.5C 273.989,265.663 272.822,265.33 271.5,265.5C 271.662,263.473 271.495,261.473 271,259.5C 270.167,260.5 269.333,261.5 268.5,262.5C 267.205,260.672 266.205,258.672 265.5,256.5C 262.643,255.037 259.643,254.037 256.5,253.5C 255.068,250.898 253.068,248.731 250.5,247C 246.644,246.133 242.977,244.8 239.5,243C 229.5,242.333 219.5,242.333 209.5,243C 201.483,246.06 193.15,247.726 184.5,248C 184.167,248.333 183.833,248.667 183.5,249C 185.833,249.333 188.167,249.667 190.5,250C 187.785,250.875 186.452,252.708 186.5,255.5C 165.534,272.591 158.868,294.257 166.5,320.5C 167.664,324.475 168.497,328.475 169,332.5C 164.239,327.592 159.072,323.259 153.5,319.5C 146.24,313.572 140.906,306.239 137.5,297.5C 136.242,294.306 135.576,290.973 135.5,287.5C 134.5,287.5 133.5,287.5 132.5,287.5C 131.898,283.628 130.231,280.295 127.5,277.5C 127.188,270.868 126.188,264.368 124.5,258C 125.45,255.765 125.45,253.598 124.5,251.5C 123.702,253.078 123.202,254.744 123,256.5C 119.701,237.179 119.868,217.846 123.5,198.5C 123.5,198.167 123.5,197.833 123.5,197.5C 125.952,191.262 128.952,185.262 132.5,179.5C 133.58,181.996 134.914,184.33 136.5,186.5C 134.388,187.518 132.721,189.018 131.5,191C 132.382,194.441 132.716,197.941 132.5,201.5 Z"/></g>
<g><path style="opacity:0.004" fill="#fefffe" d="M 14.5,187.5 C 15.8333,188.167 15.8333,188.167 14.5,187.5 Z"/></g>
<g><path style="opacity:0.004" fill="#fefffe" d="M 80.5,198.5 C 81.8333,199.167 81.8333,199.167 80.5,198.5 Z"/></g>
<g><path style="opacity:1" fill="#d55656" d="M 271.5,192.5 C 279.516,194.876 286.516,198.876 292.5,204.5C 289.348,203.043 286.015,202.043 282.5,201.5C 282.67,200.178 282.337,199.011 281.5,198C 277.581,196.882 274.248,195.048 271.5,192.5 Z"/></g>
<g><path style="opacity:0.004" fill="#fefffe" d="M 14.5,201.5 C 15.8333,202.167 15.8333,202.167 14.5,201.5 Z"/></g>
<g><path style="opacity:0.004" fill="#fefffe" d="M 428.5,209.5 C 429.833,210.167 429.833,210.167 428.5,209.5 Z"/></g>
<g><path style="opacity:0.004" fill="#fefffe" d="M 116.5,212.5 C 117.833,213.167 117.833,213.167 116.5,212.5 Z"/></g>
<g><path style="opacity:0.585" fill="#d45350" d="M 123.5,198.5 C 119.868,217.846 119.701,237.179 123,256.5C 123.202,254.744 123.702,253.078 124.5,251.5C 125.45,253.598 125.45,255.765 124.5,258C 126.188,264.368 127.188,270.868 127.5,277.5C 126.442,276.4 125.608,275.066 125,273.5C 119.927,255.839 117.927,237.839 119,219.5C 119.565,212.168 121.065,205.168 123.5,198.5 Z"/></g>
<g><path style="opacity:0.004" fill="#fefffe" d="M 332.5,231.5 C 333.833,232.167 333.833,232.167 332.5,231.5 Z"/></g>
<g><path style="opacity:0.753" fill="#d44d4b" d="M 256.5,253.5 C 232.793,239.91 209.46,240.576 186.5,255.5C 186.452,252.708 187.785,250.875 190.5,250C 188.167,249.667 185.833,249.333 183.5,249C 183.833,248.667 184.167,248.333 184.5,248C 193.15,247.726 201.483,246.06 209.5,243C 219.5,242.333 229.5,242.333 239.5,243C 242.977,244.8 246.644,246.133 250.5,247C 253.068,248.731 255.068,250.898 256.5,253.5 Z"/></g>
<g><path style="opacity:0.004" fill="#fefffe" d="M 185.5,260.5 C 186.833,261.167 186.833,261.167 185.5,260.5 Z"/></g>
<g><path style="opacity:1" fill="#d64444" d="M 256.5,253.5 C 259.643,254.037 262.643,255.037 265.5,256.5C 266.205,258.672 267.205,260.672 268.5,262.5C 269.333,261.5 270.167,260.5 271,259.5C 271.495,261.473 271.662,263.473 271.5,265.5C 272.822,265.33 273.989,265.663 275,266.5C 276.707,271.734 278.207,277.067 279.5,282.5C 276.429,278.23 273.929,273.563 272,268.5C 266.911,263.242 261.745,258.242 256.5,253.5 Z"/></g>
<g><path style="opacity:1" fill="#367b5b" d="M 123.5,310.5 C 122.206,309.71 121.039,308.71 120,307.5C 119.12,302.787 116.787,299.12 113,296.5C 111.246,299.097 110.079,301.931 109.5,305C 110.007,312.889 111.174,320.723 113,328.5C 114.613,327.378 115.78,327.878 116.5,330C 116.152,332.508 116.819,335.008 118.5,337.5C 115.905,340.259 116.072,342.926 119,345.5C 119.497,347.81 119.663,350.143 119.5,352.5C 109.847,333.057 106.013,312.391 108,290.5C 100.992,265.381 102.325,240.714 112,216.5C 113,215.167 114,213.833 115,212.5C 112.447,226.346 110.614,240.346 109.5,254.5C 111.049,274.03 115.716,292.697 123.5,310.5 Z"/></g>
<g><path style="opacity:0.004" fill="#fefffe" d="M 395.5,282.5 C 396.833,283.167 396.833,283.167 395.5,282.5 Z"/></g>
<g><path style="opacity:0.998" fill="#d55153" d="M 127.5,277.5 C 130.231,280.295 131.898,283.628 132.5,287.5C 133.5,287.5 134.5,287.5 135.5,287.5C 135.576,290.973 136.242,294.306 137.5,297.5C 136.542,297.047 135.708,296.381 135,295.5C 132.211,289.593 129.711,283.593 127.5,277.5 Z"/></g>
<g><path style="opacity:0.737" fill="#d35c5a" d="M 342.5,273.5 C 343.632,276.628 344.465,279.962 345,283.5C 345.667,295.5 345.667,307.5 345,319.5C 344.259,324.402 343.092,329.068 341.5,333.5C 340.768,330.124 341.268,326.79 343,323.5C 343.602,316.34 344.102,309.174 344.5,302C 343.733,292.503 343.067,283.003 342.5,273.5 Z"/></g>
<g><path style="opacity:0.004" fill="#fefffe" d="M 272.5,293.5 C 273.833,294.167 273.833,294.167 272.5,293.5 Z"/></g>
<g><path style="opacity:0.004" fill="#fefffe" d="M 221.5,299.5 C 222.833,300.167 222.833,300.167 221.5,299.5 Z"/></g>
<g><path style="opacity:0.004" fill="#fefffe" d="M 371.5,301.5 C 372.833,302.167 372.833,302.167 371.5,301.5 Z"/></g>
<g><path style="opacity:1" fill="#157048" d="M 123.5,310.5 C 153.74,363.175 198.407,398.009 257.5,415C 264.99,416.581 272.49,418.081 280,419.5C 280.772,419.355 281.439,419.022 282,418.5C 284.921,419.777 287.755,421.11 290.5,422.5C 270.149,445.516 249.149,467.849 227.5,489.5C 210.817,471.984 194.317,454.317 178,436.5C 158.38,413.923 140.714,389.923 125,364.5C 123.412,360.328 121.579,356.328 119.5,352.5C 119.663,350.143 119.497,347.81 119,345.5C 116.072,342.926 115.905,340.259 118.5,337.5C 116.819,335.008 116.152,332.508 116.5,330C 115.78,327.878 114.613,327.378 113,328.5C 111.174,320.723 110.007,312.889 109.5,305C 110.079,301.931 111.246,299.097 113,296.5C 116.787,299.12 119.12,302.787 120,307.5C 121.039,308.71 122.206,309.71 123.5,310.5 Z"/></g>
<g><path style="opacity:0.004" fill="#fefffe" d="M 383.5,313.5 C 384.833,314.167 384.833,314.167 383.5,313.5 Z"/></g>
<g><path style="opacity:1" fill="#d34848" d="M 153.5,319.5 C 159.072,323.259 164.239,327.592 169,332.5C 168.497,328.475 167.664,324.475 166.5,320.5C 170.926,327.839 175.259,335.339 179.5,343C 179.15,344.257 178.483,344.591 177.5,344C 174.055,340.113 170.055,336.947 165.5,334.5C 163.213,330.378 160.046,327.045 156,324.5C 154.906,322.922 154.072,321.255 153.5,319.5 Z"/></g>
<g><path style="opacity:0.004" fill="#fefffe" d="M 165.5,334.5 C 164.833,335.167 164.833,335.167 165.5,334.5 Z"/></g>
<g><path style="opacity:0.004" fill="#fefffe" d="M 248.5,338.5 C 249.833,339.167 249.833,339.167 248.5,338.5 Z"/></g>
<g><path style="opacity:0.6" fill="#d35957" d="M 341.5,333.5 C 339.594,341.557 336.927,349.224 333.5,356.5C 333.627,352.738 334.294,349.072 335.5,345.5C 336.616,340.964 338.616,336.964 341.5,333.5 Z"/></g>
<g><path style="opacity:0.004" fill="#fefffe" d="M 203.5,350.5 C 204.833,351.167 204.833,351.167 203.5,350.5 Z"/></g>
<g><path style="opacity:0.878" fill="#d05b59" d="M 233.5,360.5 C 233.389,361.117 233.056,361.617 232.5,362C 225.5,362.333 218.5,362.667 211.5,363C 213.119,363.236 214.119,364.069 214.5,365.5C 211.521,364.346 208.521,363.18 205.5,362C 204.167,361.333 204.167,360.667 205.5,360C 210.957,360.434 216.457,360.934 222,361.5C 225.848,361.243 229.682,360.909 233.5,360.5 Z"/></g>
<g><path style="opacity:0.004" fill="#fefffe" d="M 11.5,363.5 C 12.8333,364.167 12.8333,364.167 11.5,363.5 Z"/></g>
<g><path style="opacity:0.004" fill="#fefffe" d="M 416.5,364.5 C 417.833,365.167 417.833,365.167 416.5,364.5 Z"/></g>
<g><path style="opacity:1" fill="#db3132" d="M 277.5,328.5 C 276.514,332.113 275.681,335.779 275,339.5C 271.429,341.907 269.263,345.24 268.5,349.5C 270.355,349.272 271.188,349.939 271,351.5C 269.887,350.289 268.72,350.289 267.5,351.5C 266.262,347.689 265.596,347.689 265.5,351.5C 257.31,350.463 251.643,353.963 248.5,362C 247.552,362.483 246.552,362.649 245.5,362.5C 245.234,358.921 243.901,358.587 241.5,361.5C 242.309,363.071 242.643,364.738 242.5,366.5C 245.897,365.808 249.23,365.808 252.5,366.5C 249.042,368.286 245.375,369.619 241.5,370.5C 241.667,370.833 241.833,371.167 242,371.5C 248.572,373.342 255.072,375.342 261.5,377.5C 244.953,376.306 229.286,372.306 214.5,365.5C 214.119,364.069 213.119,363.236 211.5,363C 218.5,362.667 225.5,362.333 232.5,362C 233.056,361.617 233.389,361.117 233.5,360.5C 252.779,356.192 267.446,345.525 277.5,328.5 Z"/></g>
<g><path style="opacity:0.004" fill="#fefffe" d="M 101.5,368.5 C 102.833,369.167 102.833,369.167 101.5,368.5 Z"/></g>
<g><path style="opacity:0.004" fill="#fefffe" d="M 224.5,380.5 C 225.833,381.167 225.833,381.167 224.5,380.5 Z"/></g>
<g><path style="opacity:0.004" fill="#fefffe" d="M 74.5,401.5 C 75.8333,402.167 75.8333,402.167 74.5,401.5 Z"/></g>
<g><path style="opacity:0.004" fill="#fefffe" d="M 29.5,403.5 C 30.8333,404.167 30.8333,404.167 29.5,403.5 Z"/></g>
<g><path style="opacity:0.004" fill="#fefffe" d="M 8.5,409.5 C 9.83333,410.167 9.83333,410.167 8.5,409.5 Z"/></g>
<g><path style="opacity:0.004" fill="#fefffe" d="M 296.5,413.5 C 297.833,414.167 297.833,414.167 296.5,413.5 Z"/></g>
<g><path style="opacity:0.004" fill="#fefffe" d="M 29.5,422.5 C 30.8333,423.167 30.8333,423.167 29.5,422.5 Z"/></g>
<g><path style="opacity:0.004" fill="#fefffe" d="M 122.5,422.5 C 123.833,423.167 123.833,423.167 122.5,422.5 Z"/></g>
<g><path style="opacity:0.004" fill="#fefffe" d="M 380.5,427.5 C 381.833,428.167 381.833,428.167 380.5,427.5 Z"/></g>
<g><path style="opacity:0.004" fill="#fefffe" d="M 41.5,436.5 C 42.8333,437.167 42.8333,437.167 41.5,436.5 Z"/></g>
<g><path style="opacity:0.004" fill="#fefffe" d="M 293.5,453.5 C 294.833,454.167 294.833,454.167 293.5,453.5 Z"/></g>
<g><path style="opacity:0.004" fill="#fefffe" d="M 77.5,461.5 C 78.8333,462.167 78.8333,462.167 77.5,461.5 Z"/></g>
<g><path style="opacity:0.004" fill="#fefffe" d="M 104.5,461.5 C 105.833,462.167 105.833,462.167 104.5,461.5 Z"/></g>
<g><path style="opacity:0.004" fill="#fefffe" d="M 350.5,472.5 C 351.833,473.167 351.833,473.167 350.5,472.5 Z"/></g>
<g><path style="opacity:0.004" fill="#fefffe" d="M 110.5,474.5 C 111.833,475.167 111.833,475.167 110.5,474.5 Z"/></g>
<g><path style="opacity:0.004" fill="#fefffe" d="M 107.5,483.5 C 108.833,484.167 108.833,484.167 107.5,483.5 Z"/></g>
<g><path style="opacity:0.004" fill="#fefffe" d="M 131.5,501.5 C 132.833,502.167 132.833,502.167 131.5,501.5 Z"/></g>
<g><path style="opacity:0.004" fill="#fefffe" d="M 62.5,503.5 C 63.8333,504.167 63.8333,504.167 62.5,503.5 Z"/></g>
<g><path style="opacity:0.004" fill="#fefffe" d="M 146.5,503.5 C 147.833,504.167 147.833,504.167 146.5,503.5 Z"/></g>
<g><path style="opacity:0.004" fill="#fefffe" d="M 311.5,503.5 C 312.833,504.167 312.833,504.167 311.5,503.5 Z"/></g>
<g><path style="opacity:0.004" fill="#fefffe" d="M 182.5,506.5 C 183.833,507.167 183.833,507.167 182.5,506.5 Z"/></g>
<g><path style="opacity:0.004" fill="#fefffe" d="M 56.5,514.5 C 57.8333,515.167 57.8333,515.167 56.5,514.5 Z"/></g>
<g><path style="opacity:0.004" fill="#fefffe" d="M 53.5,518.5 C 54.8333,519.167 54.8333,519.167 53.5,518.5 Z"/></g>
<g><path style="opacity:0.004" fill="#fefffe" d="M 371.5,521.5 C 372.833,522.167 372.833,522.167 371.5,521.5 Z"/></g>
<g><path style="opacity:0.004" fill="#fefffe" d="M 299.5,527.5 C 300.833,528.167 300.833,528.167 299.5,527.5 Z"/></g>
<g><path style="opacity:0.004" fill="#fefffe" d="M 194.5,533.5 C 195.833,534.167 195.833,534.167 194.5,533.5 Z"/></g>
<g><path style="opacity:0.004" fill="#fefffe" d="M 251.5,535.5 C 252.833,536.167 252.833,536.167 251.5,535.5 Z"/></g>
<g><path style="opacity:0.004" fill="#fefffe" d="M 260.5,540.5 C 261.833,541.167 261.833,541.167 260.5,540.5 Z"/></g>
</svg>
