<?xml version="1.0" standalone="no"?>
<!DOCTYPE svg PUBLIC "-//W3C//DTD SVG 20010904//EN"
 "http://www.w3.org/TR/2001/REC-SVG-20010904/DTD/svg10.dtd">
<svg version="1.0" xmlns="http://www.w3.org/2000/svg"
 width="500.000000pt" height="500.000000pt" viewBox="0 0 500.000000 500.000000"
 preserveAspectRatio="xMidYMid meet">

<g transform="translate(0.000000,500.000000) scale(0.100000,-0.100000)"
fill="#000000" stroke="none">
<path d="M3110 4084 c-280 -35 -505 -120 -705 -264 -207 -149 -357 -326 -522
-614 -139 -243 -310 -490 -465 -671 -112 -131 -210 -209 -346 -273 l-77 -37
-145 0 c-126 0 -153 3 -206 23 -92 34 -183 87 -286 169 -79 62 -99 73 -132 73
-31 0 -45 -7 -70 -33 -43 -46 -93 -180 -113 -301 -13 -86 -14 -113 -3 -181 21
-135 70 -242 165 -364 181 -233 468 -362 805 -361 349 1 819 206 1103 482 56
54 109 98 118 98 18 0 29 -28 29 -75 0 -43 63 -230 106 -316 114 -227 281
-396 476 -482 80 -35 220 -74 317 -88 138 -19 478 -6 629 25 327 67 540 172
728 360 219 218 335 501 374 911 32 333 -57 812 -211 1134 -211 443 -555 692
-1054 766 -106 16 -443 28 -515 19z m549 -233 c224 -51 409 -140 557 -269 177
-152 333 -434 409 -737 61 -241 82 -447 66 -645 -18 -216 -59 -386 -128 -525
-195 -393 -573 -601 -1130 -622 -316 -12 -520 56 -706 236 -157 151 -280 417
-319 689 -11 78 -7 92 52 182 9 14 43 65 75 115 71 109 231 276 331 345 141
97 314 159 444 159 77 0 207 -31 271 -65 179 -96 253 -300 179 -496 -22 -61
-78 -126 -132 -155 -47 -25 -239 -31 -291 -10 -36 16 -37 18 -37 67 0 44 -5
56 -29 81 -31 30 -61 36 -105 19 -42 -16 -59 -53 -58 -130 1 -159 97 -227 337
-237 163 -7 247 7 323 56 112 73 169 164 203 326 91 440 -178 738 -666 737
-264 -1 -512 -112 -729 -327 -128 -126 -208 -236 -316 -435 -82 -149 -196
-278 -360 -407 -275 -215 -629 -353 -902 -353 -246 1 -452 88 -605 254 -126
138 -181 317 -142 461 18 64 27 69 65 36 54 -48 172 -112 274 -149 84 -31 110
-35 220 -40 153 -6 249 15 379 80 111 55 187 112 291 217 173 173 364 442 592
831 214 364 525 615 869 701 136 34 186 38 409 35 175 -3 232 -8 309 -25z"/>
</g>
</svg>
